<mxfile host="Electron" modified="2022-05-11T14:46:08.892Z" agent="5.0 (Windows NT 10.0; Win64; x64) AppleWebKit/537.36 (KHTML, like Gecko) draw.io/16.1.2 Chrome/96.0.4664.55 Electron/16.0.5 Safari/537.36" etag="6pWztIDgICQESjLrgoBU" compressed="false" version="16.1.2" type="device">
  <diagram id="C5RBs43oDa-KdzZeNtuy" name="ALL">
    <mxGraphModel dx="195" dy="579" grid="1" gridSize="10" guides="1" tooltips="1" connect="1" arrows="1" fold="1" page="1" pageScale="1" pageWidth="827" pageHeight="1169" math="0" shadow="0">
      <root>
        <mxCell id="WIyWlLk6GJQsqaUBKTNV-0" />
        <mxCell id="WIyWlLk6GJQsqaUBKTNV-1" parent="WIyWlLk6GJQsqaUBKTNV-0" />
        <mxCell id="97X_2J8qlAPc0du_Bcn8-79" value="" style="edgeStyle=orthogonalEdgeStyle;rounded=0;orthogonalLoop=1;jettySize=auto;html=1;fontSize=10;strokeWidth=1;" parent="WIyWlLk6GJQsqaUBKTNV-1" edge="1">
          <mxGeometry relative="1" as="geometry">
            <mxPoint x="1440" as="sourcePoint" />
          </mxGeometry>
        </mxCell>
        <mxCell id="97X_2J8qlAPc0du_Bcn8-81" value="" style="edgeStyle=orthogonalEdgeStyle;rounded=0;orthogonalLoop=1;jettySize=auto;html=1;fontSize=10;strokeWidth=1;" parent="WIyWlLk6GJQsqaUBKTNV-1" edge="1">
          <mxGeometry relative="1" as="geometry">
            <mxPoint x="1720" as="sourcePoint" />
          </mxGeometry>
        </mxCell>
        <mxCell id="jMZSFV-jjAnd5f5DXhd6-196" style="edgeStyle=orthogonalEdgeStyle;rounded=0;orthogonalLoop=1;jettySize=auto;html=1;fontSize=14;fontColor=#FF0000;strokeWidth=1;" parent="WIyWlLk6GJQsqaUBKTNV-1" edge="1">
          <mxGeometry relative="1" as="geometry">
            <mxPoint x="-1270" y="3410" as="targetPoint" />
          </mxGeometry>
        </mxCell>
        <mxCell id="sV6QlmFNlfTiQHICOQkB-79" style="edgeStyle=orthogonalEdgeStyle;rounded=0;orthogonalLoop=1;jettySize=auto;html=1;strokeColor=#F19C99;fillColor=#F8CECC;" parent="WIyWlLk6GJQsqaUBKTNV-1" source="sV6QlmFNlfTiQHICOQkB-80" edge="1">
          <mxGeometry relative="1" as="geometry">
            <mxPoint x="1220" y="495" as="targetPoint" />
          </mxGeometry>
        </mxCell>
        <object label="Severe disease" tricc_type="calculate" name="d_" id="sV6QlmFNlfTiQHICOQkB-80">
          <mxCell style="rounded=1;whiteSpace=wrap;html=1;fillColor=#f8cecc;strokeColor=#b85450;" parent="WIyWlLk6GJQsqaUBKTNV-1" vertex="1">
            <mxGeometry x="1020" y="475" width="120" height="40" as="geometry" />
          </mxCell>
        </object>
        <mxCell id="sV6QlmFNlfTiQHICOQkB-81" style="edgeStyle=orthogonalEdgeStyle;rounded=0;orthogonalLoop=1;jettySize=auto;html=1;strokeColor=#F19C99;fillColor=#F8CECC;" parent="WIyWlLk6GJQsqaUBKTNV-1" source="sV6QlmFNlfTiQHICOQkB-82" edge="1">
          <mxGeometry relative="1" as="geometry">
            <mxPoint x="1220" y="548" as="targetPoint" />
          </mxGeometry>
        </mxCell>
        <object label="Persistent disease" tricc_type="calculate" name="d_" id="sV6QlmFNlfTiQHICOQkB-82">
          <mxCell style="rounded=1;whiteSpace=wrap;html=1;fillColor=#ffe6cc;strokeColor=#d79b00;" parent="WIyWlLk6GJQsqaUBKTNV-1" vertex="1">
            <mxGeometry x="1020" y="528" width="120" height="40" as="geometry" />
          </mxCell>
        </object>
        <mxCell id="sV6QlmFNlfTiQHICOQkB-83" style="edgeStyle=orthogonalEdgeStyle;rounded=0;orthogonalLoop=1;jettySize=auto;html=1;strokeColor=#F19C99;fillColor=#F8CECC;" parent="WIyWlLk6GJQsqaUBKTNV-1" source="sV6QlmFNlfTiQHICOQkB-84" edge="1">
          <mxGeometry relative="1" as="geometry">
            <mxPoint x="1220" y="610" as="targetPoint" />
          </mxGeometry>
        </mxCell>
        <object label="Moderate disease" tricc_type="calculate" name="d_" id="sV6QlmFNlfTiQHICOQkB-84">
          <mxCell style="rounded=1;whiteSpace=wrap;html=1;fillColor=#fff2cc;strokeColor=#d6b656;" parent="WIyWlLk6GJQsqaUBKTNV-1" vertex="1">
            <mxGeometry x="1020" y="590" width="120" height="40" as="geometry" />
          </mxCell>
        </object>
        <mxCell id="sV6QlmFNlfTiQHICOQkB-85" style="edgeStyle=orthogonalEdgeStyle;rounded=0;orthogonalLoop=1;jettySize=auto;html=1;strokeColor=#F19C99;fillColor=#F8CECC;" parent="WIyWlLk6GJQsqaUBKTNV-1" source="sV6QlmFNlfTiQHICOQkB-86" edge="1">
          <mxGeometry relative="1" as="geometry">
            <mxPoint x="1220" y="440" as="targetPoint" />
          </mxGeometry>
        </mxCell>
        <object label="Benign disease" tricc_type="calculate" name="d_" id="sV6QlmFNlfTiQHICOQkB-86">
          <mxCell style="rounded=1;whiteSpace=wrap;html=1;fillColor=#d5e8d4;strokeColor=#82b366;" parent="WIyWlLk6GJQsqaUBKTNV-1" vertex="1">
            <mxGeometry x="1020" y="420" width="120" height="40" as="geometry" />
          </mxCell>
        </object>
        <mxCell id="sV6QlmFNlfTiQHICOQkB-87" style="edgeStyle=orthogonalEdgeStyle;rounded=0;orthogonalLoop=1;jettySize=auto;html=1;strokeColor=#F19C99;fillColor=#F8CECC;" parent="WIyWlLk6GJQsqaUBKTNV-1" source="sV6QlmFNlfTiQHICOQkB-88" edge="1">
          <mxGeometry relative="1" as="geometry">
            <mxPoint x="1220" y="377" as="targetPoint" />
          </mxGeometry>
        </mxCell>
        <object label="Calculation" tricc_type="calculate" name="d_" id="sV6QlmFNlfTiQHICOQkB-88">
          <mxCell style="rounded=1;whiteSpace=wrap;html=1;fillColor=none;strokeColor=default;" parent="WIyWlLk6GJQsqaUBKTNV-1" vertex="1">
            <mxGeometry x="1020" y="357" width="120" height="40" as="geometry" />
          </mxCell>
        </object>
        <object label="[Count] What is counted here?" tricc_type="count" name="count_" id="sV6QlmFNlfTiQHICOQkB-89">
          <mxCell style="rounded=1;whiteSpace=wrap;html=1;fillColor=#dae8fc;strokeColor=#6c8ebf;" parent="WIyWlLk6GJQsqaUBKTNV-1" vertex="1">
            <mxGeometry x="1040" y="659" width="160" height="40" as="geometry" />
          </mxCell>
        </object>
        <mxCell id="sV6QlmFNlfTiQHICOQkB-90" value="Yes" style="edgeStyle=orthogonalEdgeStyle;rounded=0;orthogonalLoop=1;jettySize=auto;html=1;strokeColor=#000000;fillColor=#F8CECC;" parent="WIyWlLk6GJQsqaUBKTNV-1" source="sV6QlmFNlfTiQHICOQkB-92" edge="1">
          <mxGeometry relative="1" as="geometry">
            <mxPoint x="1220" y="738" as="targetPoint" />
          </mxGeometry>
        </mxCell>
        <mxCell id="sV6QlmFNlfTiQHICOQkB-91" value="No" style="edgeStyle=orthogonalEdgeStyle;rounded=0;orthogonalLoop=1;jettySize=auto;html=1;strokeColor=#000000;fillColor=#F8CECC;" parent="WIyWlLk6GJQsqaUBKTNV-1" source="sV6QlmFNlfTiQHICOQkB-92" edge="1">
          <mxGeometry relative="1" as="geometry">
            <mxPoint x="1080" y="838" as="targetPoint" />
          </mxGeometry>
        </mxCell>
        <UserObject label="Ask a YES/NO question" name="ask_" tricc_type="select_one yesno" id="sV6QlmFNlfTiQHICOQkB-92">
          <mxCell style="html=1;whiteSpace=wrap;fillColor=none;rounded=0;strokeColor=default;align=left;" parent="WIyWlLk6GJQsqaUBKTNV-1" vertex="1">
            <mxGeometry x="1020" y="718" width="120" height="40" as="geometry" />
          </mxCell>
        </UserObject>
        <mxCell id="sV6QlmFNlfTiQHICOQkB-93" style="edgeStyle=orthogonalEdgeStyle;rounded=0;orthogonalLoop=1;jettySize=auto;html=1;strokeColor=#F19C99;fillColor=#F8CECC;" parent="WIyWlLk6GJQsqaUBKTNV-1" source="sV6QlmFNlfTiQHICOQkB-94" edge="1">
          <mxGeometry relative="1" as="geometry">
            <mxPoint x="1220" y="307" as="targetPoint" />
          </mxGeometry>
        </mxCell>
        <UserObject label="Text box" name="label_" tricc_type="note" id="sV6QlmFNlfTiQHICOQkB-94">
          <mxCell style="html=1;whiteSpace=wrap;fillColor=none;align=left;strokeColor=#F19C99;" parent="WIyWlLk6GJQsqaUBKTNV-1" vertex="1">
            <mxGeometry x="1020" y="287" width="120" height="40" as="geometry" />
          </mxCell>
        </UserObject>
        <UserObject label="Single choice question" name="select_" tricc_type="select_one" filter="" id="sV6QlmFNlfTiQHICOQkB-95">
          <mxCell style="swimlane;fontStyle=0;childLayout=stackLayout;horizontal=1;startSize=30;horizontalStack=0;resizeParent=1;resizeParentMax=0;resizeLast=0;collapsible=0;marginBottom=0;fontColor=#000000;rounded=1;fillColor=none;strokeColor=default;align=left;" parent="WIyWlLk6GJQsqaUBKTNV-1" vertex="1">
            <mxGeometry x="1265" y="400" width="225" height="240" as="geometry" />
          </mxCell>
        </UserObject>
        <UserObject label="Option 1" name="opt_1" tricc_type="select_option" id="sV6QlmFNlfTiQHICOQkB-96">
          <mxCell style="text;strokeColor=default;fillColor=none;align=left;verticalAlign=middle;spacingLeft=4;spacingRight=4;overflow=hidden;points=[[0,0.5],[1,0.5]];portConstraint=eastwest;rotatable=0;fontColor=#000000;rounded=0;dashed=1;" parent="sV6QlmFNlfTiQHICOQkB-95" vertex="1">
            <mxGeometry y="30" width="225" height="30" as="geometry" />
          </mxCell>
        </UserObject>
        <UserObject label="Option 2" name="opt_2" tricc_type="select_option" id="sV6QlmFNlfTiQHICOQkB-97">
          <mxCell style="text;strokeColor=default;fillColor=none;align=left;verticalAlign=middle;spacingLeft=4;spacingRight=4;overflow=hidden;points=[[0,0.5],[1,0.5]];portConstraint=eastwest;rotatable=0;fontColor=#000000;rounded=0;dashed=1;" parent="sV6QlmFNlfTiQHICOQkB-95" vertex="1">
            <mxGeometry y="60" width="225" height="30" as="geometry" />
          </mxCell>
        </UserObject>
        <UserObject label="Option 3" name="opt_3" tricc_type="select_option" id="sV6QlmFNlfTiQHICOQkB-98">
          <mxCell style="text;strokeColor=default;fillColor=none;align=left;verticalAlign=middle;spacingLeft=4;spacingRight=4;overflow=hidden;points=[[0,0.5],[1,0.5]];portConstraint=eastwest;rotatable=0;fontColor=#000000;rounded=0;dashed=1;" parent="sV6QlmFNlfTiQHICOQkB-95" vertex="1">
            <mxGeometry y="90" width="225" height="30" as="geometry" />
          </mxCell>
        </UserObject>
        <UserObject label="Option 4" name="opt_3" tricc_type="select_option" id="sV6QlmFNlfTiQHICOQkB-99">
          <mxCell style="text;strokeColor=default;fillColor=none;align=left;verticalAlign=middle;spacingLeft=4;spacingRight=4;overflow=hidden;points=[[0,0.5],[1,0.5]];portConstraint=eastwest;rotatable=0;dashed=1;" parent="sV6QlmFNlfTiQHICOQkB-95" vertex="1">
            <mxGeometry y="120" width="225" height="30" as="geometry" />
          </mxCell>
        </UserObject>
        <UserObject label="Option 5" name="opt_5" tricc_type="select_option" id="sV6QlmFNlfTiQHICOQkB-100">
          <mxCell style="text;strokeColor=default;fillColor=none;align=left;verticalAlign=middle;spacingLeft=4;spacingRight=4;overflow=hidden;points=[[0,0.5],[1,0.5]];portConstraint=eastwest;rotatable=0;dashed=1;" parent="sV6QlmFNlfTiQHICOQkB-95" vertex="1">
            <mxGeometry y="150" width="225" height="30" as="geometry" />
          </mxCell>
        </UserObject>
        <UserObject label="Option 6" name="opt_6" tricc_type="select_option" id="sV6QlmFNlfTiQHICOQkB-101">
          <mxCell style="text;strokeColor=default;fillColor=none;align=left;verticalAlign=middle;spacingLeft=4;spacingRight=4;overflow=hidden;points=[[0,0.5],[1,0.5]];portConstraint=eastwest;rotatable=0;dashed=1;" parent="sV6QlmFNlfTiQHICOQkB-95" vertex="1">
            <mxGeometry y="180" width="225" height="30" as="geometry" />
          </mxCell>
        </UserObject>
        <UserObject label="None of the above" name="opt_none" tricc_type="select_option" id="sV6QlmFNlfTiQHICOQkB-102">
          <mxCell style="text;strokeColor=default;fillColor=none;align=left;verticalAlign=middle;spacingLeft=4;spacingRight=4;overflow=hidden;points=[[0,0.5],[1,0.5]];portConstraint=eastwest;rotatable=0;dashed=1;" parent="sV6QlmFNlfTiQHICOQkB-95" vertex="1">
            <mxGeometry y="210" width="225" height="30" as="geometry" />
          </mxCell>
        </UserObject>
        <mxCell id="sV6QlmFNlfTiQHICOQkB-103" style="edgeStyle=orthogonalEdgeStyle;rounded=0;orthogonalLoop=1;jettySize=auto;html=1;jumpStyle=gap;jumpSize=12;strokeColor=#F19C99;fillColor=#F8CECC;" parent="WIyWlLk6GJQsqaUBKTNV-1" source="sV6QlmFNlfTiQHICOQkB-96" edge="1">
          <mxGeometry relative="1" as="geometry">
            <mxPoint x="1550" y="445" as="targetPoint" />
          </mxGeometry>
        </mxCell>
        <mxCell id="sV6QlmFNlfTiQHICOQkB-104" style="edgeStyle=orthogonalEdgeStyle;rounded=0;orthogonalLoop=1;jettySize=auto;html=1;jumpStyle=gap;jumpSize=12;strokeColor=#F19C99;fillColor=#F8CECC;" parent="WIyWlLk6GJQsqaUBKTNV-1" source="sV6QlmFNlfTiQHICOQkB-97" edge="1">
          <mxGeometry relative="1" as="geometry">
            <mxPoint x="1550" y="475" as="targetPoint" />
          </mxGeometry>
        </mxCell>
        <mxCell id="sV6QlmFNlfTiQHICOQkB-105" style="edgeStyle=orthogonalEdgeStyle;rounded=0;orthogonalLoop=1;jettySize=auto;html=1;jumpStyle=gap;jumpSize=12;strokeColor=#F19C99;fillColor=#F8CECC;" parent="WIyWlLk6GJQsqaUBKTNV-1" source="sV6QlmFNlfTiQHICOQkB-98" edge="1">
          <mxGeometry relative="1" as="geometry">
            <mxPoint x="1550" y="505" as="targetPoint" />
          </mxGeometry>
        </mxCell>
        <mxCell id="sV6QlmFNlfTiQHICOQkB-106" style="edgeStyle=orthogonalEdgeStyle;rounded=0;orthogonalLoop=1;jettySize=auto;html=1;jumpStyle=gap;jumpSize=12;strokeColor=#F19C99;fillColor=#F8CECC;" parent="WIyWlLk6GJQsqaUBKTNV-1" source="sV6QlmFNlfTiQHICOQkB-99" edge="1">
          <mxGeometry relative="1" as="geometry">
            <mxPoint x="1550" y="535" as="targetPoint" />
          </mxGeometry>
        </mxCell>
        <mxCell id="sV6QlmFNlfTiQHICOQkB-107" style="edgeStyle=orthogonalEdgeStyle;rounded=0;orthogonalLoop=1;jettySize=auto;html=1;jumpStyle=gap;jumpSize=12;strokeColor=#F19C99;fillColor=#F8CECC;" parent="WIyWlLk6GJQsqaUBKTNV-1" source="sV6QlmFNlfTiQHICOQkB-100" edge="1">
          <mxGeometry relative="1" as="geometry">
            <mxPoint x="1550" y="565" as="targetPoint" />
          </mxGeometry>
        </mxCell>
        <mxCell id="sV6QlmFNlfTiQHICOQkB-108" style="edgeStyle=orthogonalEdgeStyle;rounded=0;orthogonalLoop=1;jettySize=auto;html=1;jumpStyle=gap;jumpSize=12;strokeColor=#F19C99;fillColor=#F8CECC;" parent="WIyWlLk6GJQsqaUBKTNV-1" source="sV6QlmFNlfTiQHICOQkB-101" edge="1">
          <mxGeometry relative="1" as="geometry">
            <mxPoint x="1550" y="595" as="targetPoint" />
          </mxGeometry>
        </mxCell>
        <mxCell id="sV6QlmFNlfTiQHICOQkB-109" style="edgeStyle=orthogonalEdgeStyle;rounded=0;orthogonalLoop=1;jettySize=auto;html=1;jumpStyle=gap;jumpSize=12;strokeColor=#F19C99;fillColor=#F8CECC;" parent="WIyWlLk6GJQsqaUBKTNV-1" source="sV6QlmFNlfTiQHICOQkB-102" edge="1">
          <mxGeometry relative="1" as="geometry">
            <mxPoint x="1550" y="660" as="targetPoint" />
          </mxGeometry>
        </mxCell>
        <UserObject label="Multiple choice question" name="select_" tricc_type="select_multiple" filter="" id="sV6QlmFNlfTiQHICOQkB-110">
          <mxCell style="swimlane;fontStyle=0;childLayout=stackLayout;horizontal=1;startSize=30;horizontalStack=0;resizeParent=1;resizeParentMax=0;resizeLast=0;collapsible=0;marginBottom=0;fontColor=#000000;rounded=0;fillColor=none;align=left;strokeColor=#F19C99;" parent="WIyWlLk6GJQsqaUBKTNV-1" vertex="1">
            <mxGeometry x="1260" y="680" width="282" height="240" as="geometry" />
          </mxCell>
        </UserObject>
        <UserObject label="Option 1" name="opt_1" tricc_type="select_option" id="sV6QlmFNlfTiQHICOQkB-111">
          <mxCell style="text;strokeColor=default;fillColor=none;align=left;verticalAlign=middle;spacingLeft=4;spacingRight=4;overflow=hidden;points=[[0,0.5],[1,0.5]];portConstraint=eastwest;rotatable=0;fontColor=#000000;rounded=0;dashed=1;" parent="sV6QlmFNlfTiQHICOQkB-110" vertex="1">
            <mxGeometry y="30" width="282" height="30" as="geometry" />
          </mxCell>
        </UserObject>
        <UserObject label="Option 2" name="opt_2" tricc_type="select_option" id="sV6QlmFNlfTiQHICOQkB-112">
          <mxCell style="text;strokeColor=default;fillColor=none;align=left;verticalAlign=middle;spacingLeft=4;spacingRight=4;overflow=hidden;points=[[0,0.5],[1,0.5]];portConstraint=eastwest;rotatable=0;fontColor=#000000;rounded=0;dashed=1;" parent="sV6QlmFNlfTiQHICOQkB-110" vertex="1">
            <mxGeometry y="60" width="282" height="30" as="geometry" />
          </mxCell>
        </UserObject>
        <UserObject label="Option 3" name="opt_3" tricc_type="select_option" id="sV6QlmFNlfTiQHICOQkB-113">
          <mxCell style="text;strokeColor=default;fillColor=none;align=left;verticalAlign=middle;spacingLeft=4;spacingRight=4;overflow=hidden;points=[[0,0.5],[1,0.5]];portConstraint=eastwest;rotatable=0;fontColor=#000000;rounded=0;dashed=1;" parent="sV6QlmFNlfTiQHICOQkB-110" vertex="1">
            <mxGeometry y="90" width="282" height="30" as="geometry" />
          </mxCell>
        </UserObject>
        <UserObject label="Option 4" name="opt_4" tricc_type="select_option" id="sV6QlmFNlfTiQHICOQkB-114">
          <mxCell style="text;strokeColor=default;fillColor=none;align=left;verticalAlign=middle;spacingLeft=4;spacingRight=4;overflow=hidden;points=[[0,0.5],[1,0.5]];portConstraint=eastwest;rotatable=0;dashed=1;" parent="sV6QlmFNlfTiQHICOQkB-110" vertex="1">
            <mxGeometry y="120" width="282" height="30" as="geometry" />
          </mxCell>
        </UserObject>
        <UserObject label="Option 5" name="opt_5" tricc_type="select_option" id="sV6QlmFNlfTiQHICOQkB-115">
          <mxCell style="text;strokeColor=default;fillColor=none;align=left;verticalAlign=middle;spacingLeft=4;spacingRight=4;overflow=hidden;points=[[0,0.5],[1,0.5]];portConstraint=eastwest;rotatable=0;dashed=1;" parent="sV6QlmFNlfTiQHICOQkB-110" vertex="1">
            <mxGeometry y="150" width="282" height="30" as="geometry" />
          </mxCell>
        </UserObject>
        <UserObject label="Option 6" name="opt_6" tricc_type="select_option" id="sV6QlmFNlfTiQHICOQkB-116">
          <mxCell style="text;strokeColor=default;fillColor=none;align=left;verticalAlign=middle;spacingLeft=4;spacingRight=4;overflow=hidden;points=[[0,0.5],[1,0.5]];portConstraint=eastwest;rotatable=0;dashed=1;" parent="sV6QlmFNlfTiQHICOQkB-110" vertex="1">
            <mxGeometry y="180" width="282" height="30" as="geometry" />
          </mxCell>
        </UserObject>
        <UserObject label="None of the above" name="opt_none" tricc_type="select_option" id="sV6QlmFNlfTiQHICOQkB-117">
          <mxCell style="text;strokeColor=default;fillColor=none;align=left;verticalAlign=middle;spacingLeft=4;spacingRight=4;overflow=hidden;points=[[0,0.5],[1,0.5]];portConstraint=eastwest;rotatable=0;dashed=1;" parent="sV6QlmFNlfTiQHICOQkB-110" vertex="1">
            <mxGeometry y="210" width="282" height="30" as="geometry" />
          </mxCell>
        </UserObject>
        <mxCell id="sV6QlmFNlfTiQHICOQkB-118" style="edgeStyle=orthogonalEdgeStyle;rounded=0;orthogonalLoop=1;jettySize=auto;html=1;jumpStyle=gap;jumpSize=12;strokeColor=#F19C99;fillColor=#F8CECC;" parent="WIyWlLk6GJQsqaUBKTNV-1" source="sV6QlmFNlfTiQHICOQkB-111" edge="1">
          <mxGeometry relative="1" as="geometry">
            <mxPoint x="1602" y="725" as="targetPoint" />
          </mxGeometry>
        </mxCell>
        <mxCell id="sV6QlmFNlfTiQHICOQkB-119" style="edgeStyle=orthogonalEdgeStyle;rounded=0;orthogonalLoop=1;jettySize=auto;html=1;jumpStyle=gap;jumpSize=12;strokeColor=#F19C99;fillColor=#F8CECC;" parent="WIyWlLk6GJQsqaUBKTNV-1" source="sV6QlmFNlfTiQHICOQkB-112" edge="1">
          <mxGeometry relative="1" as="geometry">
            <mxPoint x="1602" y="755" as="targetPoint" />
          </mxGeometry>
        </mxCell>
        <mxCell id="sV6QlmFNlfTiQHICOQkB-120" style="edgeStyle=orthogonalEdgeStyle;rounded=0;orthogonalLoop=1;jettySize=auto;html=1;jumpStyle=gap;jumpSize=12;strokeColor=#F19C99;fillColor=#F8CECC;" parent="WIyWlLk6GJQsqaUBKTNV-1" source="sV6QlmFNlfTiQHICOQkB-113" edge="1">
          <mxGeometry relative="1" as="geometry">
            <mxPoint x="1602" y="785" as="targetPoint" />
          </mxGeometry>
        </mxCell>
        <mxCell id="sV6QlmFNlfTiQHICOQkB-121" style="edgeStyle=orthogonalEdgeStyle;rounded=0;orthogonalLoop=1;jettySize=auto;html=1;jumpStyle=gap;jumpSize=12;strokeColor=#F19C99;fillColor=#F8CECC;" parent="WIyWlLk6GJQsqaUBKTNV-1" source="sV6QlmFNlfTiQHICOQkB-114" edge="1">
          <mxGeometry relative="1" as="geometry">
            <mxPoint x="1602" y="815" as="targetPoint" />
          </mxGeometry>
        </mxCell>
        <mxCell id="sV6QlmFNlfTiQHICOQkB-122" style="edgeStyle=orthogonalEdgeStyle;rounded=0;orthogonalLoop=1;jettySize=auto;html=1;jumpStyle=gap;jumpSize=12;strokeColor=#F19C99;fillColor=#F8CECC;" parent="WIyWlLk6GJQsqaUBKTNV-1" source="sV6QlmFNlfTiQHICOQkB-115" edge="1">
          <mxGeometry relative="1" as="geometry">
            <mxPoint x="1602" y="845" as="targetPoint" />
          </mxGeometry>
        </mxCell>
        <mxCell id="sV6QlmFNlfTiQHICOQkB-123" style="edgeStyle=orthogonalEdgeStyle;rounded=0;orthogonalLoop=1;jettySize=auto;html=1;jumpStyle=gap;jumpSize=12;strokeColor=#F19C99;fillColor=#F8CECC;" parent="WIyWlLk6GJQsqaUBKTNV-1" source="sV6QlmFNlfTiQHICOQkB-116" edge="1">
          <mxGeometry relative="1" as="geometry">
            <mxPoint x="1602" y="875" as="targetPoint" />
          </mxGeometry>
        </mxCell>
        <mxCell id="sV6QlmFNlfTiQHICOQkB-124" style="edgeStyle=orthogonalEdgeStyle;rounded=0;orthogonalLoop=1;jettySize=auto;html=1;jumpStyle=gap;jumpSize=12;strokeColor=#F19C99;fillColor=#F8CECC;" parent="WIyWlLk6GJQsqaUBKTNV-1" source="sV6QlmFNlfTiQHICOQkB-117" edge="1">
          <mxGeometry relative="1" as="geometry">
            <mxPoint x="1602" y="940" as="targetPoint" />
          </mxGeometry>
        </mxCell>
        <mxCell id="sV6QlmFNlfTiQHICOQkB-125" value="Yes" style="edgeStyle=orthogonalEdgeStyle;rounded=0;orthogonalLoop=1;jettySize=auto;html=1;strokeColor=#F19C99;fillColor=#F8CECC;" parent="WIyWlLk6GJQsqaUBKTNV-1" source="sV6QlmFNlfTiQHICOQkB-127" edge="1">
          <mxGeometry relative="1" as="geometry">
            <mxPoint x="1440" y="266" as="targetPoint" />
          </mxGeometry>
        </mxCell>
        <mxCell id="sV6QlmFNlfTiQHICOQkB-126" value="No" style="edgeStyle=orthogonalEdgeStyle;rounded=0;orthogonalLoop=1;jettySize=auto;html=1;strokeColor=#F19C99;fillColor=#F8CECC;" parent="WIyWlLk6GJQsqaUBKTNV-1" source="sV6QlmFNlfTiQHICOQkB-127" edge="1">
          <mxGeometry relative="1" as="geometry">
            <mxPoint x="1310" y="396" as="targetPoint" />
          </mxGeometry>
        </mxCell>
        <UserObject label="Age &amp;lt;2 years?" name="stored_" tricc_type="rhombus" id="sV6QlmFNlfTiQHICOQkB-127">
          <mxCell style="rhombus;whiteSpace=wrap;html=1;rounded=0;strokeColor=default;fillColor=none;" parent="WIyWlLk6GJQsqaUBKTNV-1" vertex="1">
            <mxGeometry x="1260" y="216" width="100" height="100" as="geometry" />
          </mxCell>
        </UserObject>
        <mxCell id="sV6QlmFNlfTiQHICOQkB-128" style="edgeStyle=orthogonalEdgeStyle;rounded=0;orthogonalLoop=1;jettySize=auto;html=1;jumpStyle=gap;jumpSize=12;strokeColor=#F19C99;fillColor=#F8CECC;" parent="WIyWlLk6GJQsqaUBKTNV-1" source="sV6QlmFNlfTiQHICOQkB-129" edge="1">
          <mxGeometry relative="1" as="geometry">
            <mxPoint x="1130" y="890" as="targetPoint" />
          </mxGeometry>
        </mxCell>
        <UserObject label="User enters integer number" name="p_" tricc_type="integer" min="" max="" required="yes" constraint_message="" id="sV6QlmFNlfTiQHICOQkB-129">
          <mxCell style="shape=hexagon;perimeter=hexagonPerimeter2;whiteSpace=wrap;html=1;fixedSize=1;fillColor=none;strokeColor=#F19C99;" parent="WIyWlLk6GJQsqaUBKTNV-1" vertex="1">
            <mxGeometry x="930" y="850" width="120" height="80" as="geometry" />
          </mxCell>
        </UserObject>
        <mxCell id="sV6QlmFNlfTiQHICOQkB-130" style="edgeStyle=orthogonalEdgeStyle;rounded=0;orthogonalLoop=1;jettySize=auto;html=1;jumpStyle=gap;jumpSize=12;strokeColor=#F19C99;fillColor=#F8CECC;" parent="WIyWlLk6GJQsqaUBKTNV-1" source="sV6QlmFNlfTiQHICOQkB-131" edge="1">
          <mxGeometry relative="1" as="geometry">
            <mxPoint x="1027" y="40" as="targetPoint" />
          </mxGeometry>
        </mxCell>
        <object label="User enters decimal number" tricc_type="decimal" min="" max="" constraint_message="" required="yes" name="p_" id="sV6QlmFNlfTiQHICOQkB-131">
          <mxCell style="ellipse;whiteSpace=wrap;html=1;fillColor=none;strokeColor=#F19C99;" parent="WIyWlLk6GJQsqaUBKTNV-1" vertex="1">
            <mxGeometry x="827" width="120" height="80" as="geometry" />
          </mxCell>
        </object>
        <object label="" tricc_type="container_hint_media" id="sV6QlmFNlfTiQHICOQkB-132">
          <mxCell style="swimlane;startSize=0;swimlaneLine=1;collapsible=0;fillColor=none;fontColor=#333333;strokeColor=#666666;align=center;verticalAlign=bottom;rounded=0;fontSize=12;" parent="WIyWlLk6GJQsqaUBKTNV-1" vertex="1">
            <mxGeometry x="1280" width="270" height="207" as="geometry">
              <mxRectangle x="1460" y="-190" width="50" height="40" as="alternateBounds" />
            </mxGeometry>
          </mxCell>
        </object>
        <object label="&lt;font style=&quot;font-size: 12px&quot;&gt;Message to user&lt;/font&gt;" tricc_type="note" name="label_" id="sV6QlmFNlfTiQHICOQkB-133">
          <mxCell style="rounded=0;whiteSpace=wrap;html=1;align=left;fillColor=none;fontSize=12;strokeColor=default;" parent="sV6QlmFNlfTiQHICOQkB-132" vertex="1">
            <mxGeometry x="15" y="13" width="145" height="37" as="geometry" />
          </mxCell>
        </object>
        <mxCell id="sV6QlmFNlfTiQHICOQkB-134" value="" style="shape=image;verticalLabelPosition=bottom;labelBackgroundColor=#ffffff;verticalAlign=top;aspect=fixed;imageAspect=0;image=data:image/png,iVBORw0KGgoAAAANSUhEUgAAAG0AAAB/CAYAAADl5kzGAAAAAXNSR0IArs4c6QAAAARnQU1BAACxjwv8YQUAAAAJcEhZcwAADsMAAA7DAcdvqGQAACbUSURBVHhe7Z2Hl1RVtsbnP3hvrXnvzTjjjIlgTiAKiCIISJIMIggIiIAkJeecM00SaDKSc2xyzhnJOSMtOUoD5+3f7jp4KSvcul0N1WN/a/XqVF1ddfY5e3/72/uc85dBcXHm3Pnz5l5Sknn48KFJR+zjLxcTE31fpiOt4C++z+lIQ0g3WhpEutHSINKNlgaRbrQ0iHSjpUGkGy1C3Lt3z9y4ccM8ePDA95Pfwe/u3LmjH3fv3jX379/3/Sa6SDdaCGAYDJGUlKTf37x502zeuMmMHT3GHD169NHvbt++bc6dO2fWrF5tZs+aZRYtXGhWrlhh9u3bZ65fu6Z/98svv+hn+1zAq5iRbrQg+O2338zhw4fNvLlzzWoxBkaZO2euadWipRnQr7/p1qWLWb5smVm4YIFp26q1qVzxK5M39yemVPESplvXbmbggDjToV07M2bUKLNs6VL5uxb6M/7m0qVLvv/iDelGC4Dz58+biT/9ZHp062Y6d+xomjVpYurXqWvi+vc3iRcTZfVcV0N9Xamy/n7MqNGyytaYZUuWqmEa/fCDKV+unCnwaT7TsV17c/DAAXNNVtyO7dtNk4aNTNvWrc0RmRBekW40P5yXFTVh3DhdYYmJiebwocOmS8dOYqRW5tzZs+oe631Xx7Rs1txs2bzZXLl8Wd2jBS711MmT5schQ8ynn+Qxr2TMZL76soJZuniJSRJ3+mvir6ZD23YmfvgIfX4vSDeaH8aNGWOmTpliLosxDh06qAb7rlYt06dXL/1o+P0P+v0FWY1O4CYx1JLFi82FCxc03u3Zvcc0b9rMlC9bzrRu2cokJCzSOLZn927TtVNnk7AowffXkSHdaA6cOHHSdGzf3hzYf8Bcv37d9Oze3WR9513zwXvZTJmSpUzxokXN+1mzqlucMX2GGmrf3r3CJq/r6ixTsqSuqmFDfzS7d+3SuHjq1CnTQlbl4IGDzKC4gWbD+vX6858mTNDvT5w44fvv7pFuNAemTZlqxowerVR9yqRJplD+AibH+x/oSunTq7eZOOEn813t2hrbJknMmzJpsj6O+Dd08GDTqUMHU79uXVOzxremXes2Zs7s2eaGGH/JkiWmd89eQkKWC/Mcraxyz549ZvCgQeqGI8Wf3mi4K/IuVkz8sGHmtKwM4lT9OnVM7W9rqnv7tvo3YqSJ5vat20r1z0psI76dPn1aXd2CefPUpW7dssXsleeZKI9tJG70m6rVZNUNVQN1Fje7ds0as3HDBvOzfM//nCd/N+zHH5WZRoI/vdHImzYLoWjVvIWZMW26OSkkYvbMWUoWxkp8g7ZnF/dYtlRpNdzxY8f+kDQTv86eOWMu+nKxM/L1EiEesMRSxYurmx04YIC6zatXr0ryfVf/DmMOlThIShAJ/vRGQ71YtXKlqSUurVePnpJ/dTXxI0aYxQkJZrisgmJFipiML75oMr7wonkt88umetWq6uKOifH8Qf5FzCLJ3vvzz0pKmjVpakqXKGmaNm6sjPPixYu+RxtNuCdKbPtp/HjfT9zhT2s0VgsMcMeOHTq4rAQS4yaNGqvbw9W1a9PGfJYvnxCR9/TjxX8/b/71zD/UiHVqf2d27typcpUFq+yA5GQQFAw7ZfJkScjnmK6du5jPCxcxFct/Kc+79dFKxTVrbieE5NxZ9y7yP85o5EmBdEF/kNyOjh9punftZvJ8nNvklY+hQgwuXDiv7i1++HBTp1ZtdW9Z33nHvJwho/kwe3b9Om/u3CZ7tvdNoQKfiYEWanzyx11xgUePHDUzhWWOkv8T13+AKVGsuPmmWnWzft06zdnA9m3bTL8+fczWrVv1ezdI80ZjtmIkYtOVK1ckGT6oNBrScOvmrUfCLR9W64MIxPXrp6uA38+YPt3UlZXTsnlzZYAQiNdffkWMlMNU+KK8rracYrDyZcuaShW/kpyrpeRkQ022d7NoOjB54kSNVcHA/yWNgG0W/7yYqSGGYyWDo0eOmJEj4lUic4s0bTSUCAjATnFxM2fMEDfU2fzQoIHkRc2UQPDBgK5auUrjDDnTbmF77du2VTe4TWY3lFu/b9hIV1yuHDk11/osX35TqkQJ01dWwXqJU7hRBrfmNzVUwhopca/xDw0lJXhfNUe0yEBxzh+wzmnCNHv37GkSFi6S2LdX0wzov1ukSaOxqogNJKcM+BDJkSATJ44fVzqOezsm1BzXQ5ILqWBQ0RCh4lUrVzGVKlRQOeq7mrVM9a+rmipfVTL1atcxXeVxcyW/+nn3HmGDF5UZAlZno++/F5dZy6xetUrdHX+X5a23laS88K9/i7GJWckrKBisZ0DfnDZ1qqQVtYTsFFWG6RZpymi/iStbkrBYVXYGbb7kOVDwmxJTcHMMBoPyyGXKgDPorEhYIioEcYq/XSYJL8xtsiTHC+YtkFW3TYjJBRV2eawlC0yA4ZK/MagMcgvJ20gPIBdFCxU2Lz33vHn+n88qQXn278+YIgULaVLtBrdv3dLJ1qBePVPr22/N9u3bfb8JjTRjNJLS/hKHkINWLF+uoixszcYpN2AVELfGjR2r32Mg5KpbMnjOOpcFpKRLp04au0oKiUAR2bh+g1kjSfLOHTv1deAi8+f91JQrXdrUrllT6X0peSw65BlhoeHA5GAVk2506tDR99PQiHmjnTh+QlbDZNO3dx8tMBK4maFOsKrsyggF4klvGRyYYTjcEiJDMg3tp7xSp3ZtMWBnMfIN1Q61ACofTJ5t4qrJy46Le8YArLS+vXtr3Nq0caPvGYOD/G74j8NMp/YdfD8JjZg1Gu6O6m/cgDhJPidoLYqVEQgMYnJ+tFAfx/eBwKoaJqyPAQoHDICxUEXI42CRKPNuwCQ6fPiQmTVjpmqO06dNC1n43CX5Hv8LV+kGMWk0kl7iBy4DVkiNKxSY9YcPHVL5CfoO8Th18pTvt7+DWEWrwOiRo3w/CY79+/creYHkIBaTr61Yttz3W3fg/61cvkL1R1wr9TdnMg5woUyi/n37/uF3wRBzRkONIJ/BHVKaZ9a6Ae6RlXTwwEEx+DQzdcpUdYfOmEfsIp6NHzvO95PggIUOGjhQ87fmTZqZCePGqxECwf4HJg9iM8TICd4TRusj7hLyROoBiKPTZXJSEdi3d5/+zA1ixmgM+rGjxzSHmSS5Fe7JK5ixCQsXakxat3adanyAVoEfZdaPHxfeaAwoA92mZSsVdB8+CE148A6HDh5ScoJbRxFx4v79B+oBunftqprm/n371JUT+9xMIidiwmjJDOpnMyp+lCacgWQhL6BfA9ZHTGLFUlaBiBAjwwEjIf7CWu8FiZFOLJy/QFYNK3yKpiSrVgSOT1S1SR+aN22q/SVUyiMthD51o+FSSIIZ4KVLlgqNf5wZegVukQmQO9dH+hls2bzF9OjWXQlLOGBkVk3CokXm6pUrvp8GBwZGJF63dq22EeDekdWcYHLyuhCUa1StpukCak6keKpG400gI8GwMFxSUrL6EA0wOORlyFO7du3Sny2cP1/yvIFaqPQHRuJv+OBrPog/rBy3DTizZ81WV7d502ZN5Of59MQH8j55r7hEq/7TnhcoN3SDp2Y03gR1JAx24tgxHaRogsHftHGTuiLE3d27dpuR8SOVOf4iLsoJBhU3CGHAhcJcYXNVK1fW10cHlQWvO1hKgQ66RyYIBkHJh6nyvKwsWhSGDBpktohBEbNTgqdiNN40LWQUHKHzD6NsMIDROkqyir5I0rpNVvI4WQWQi19//d0IzHZaDWCshw4eNC2aNzdvv/6G6S6vbYJMKlYMCb0FLo+0gl5GQP51XWKwnXTELH4P84SpQjTmzJolq2+T/l+vq8uJJ240EmQqw6gFsDoGNzWASyv5eTHTukVLMzguzhyRgacBh4F0ujuMMGL4cG26gXVSZ0P4hcEiOkMuiGsWGGfliuWq+LNi+/ftp7/nffB4VjKC8+VLl7VL67IYFbkt2Or0gidqNGpOzFw6lyKp1EYKBvD0mdPaQsDkoMsKxZ74hEhs1QlIEBoiSTT1LkB+1qZVK7NF4iGNqp07dJQ8ranKUeRXkBiKmo0bNlSlg85j0oKhg4eYIQMHK+khX0xNPDGjMVBTJ09RgzEwqQmMxv9Djac2BgFB6VfFZNr0R3JYUtJ9c+b0GbNB4g6/vyvJMxWA0SNH6gSDPWJQaDnKDMaaPHGSts/h/mCKK+UxlGrmz50nDHJDUKktmngiRuONUCVG+SZuuAFuiL8jRnjBvd/u6WaJd958U/M0wIojTtE9bAGxsHHGdmEh/oJZYii0SlYcwjA1vJMnTiphoXaH8sHf8hzkltGIV26Q6ka7dvWaWSTsiepsIKodDAwAlWDYlxew2siVCuYv8CgXIk4Rv6xCYsGgr5RkmH4R8i07+LNmztRV598C/rSRqkbjzUN36fejqTMSWOV+7Zq1vp9EBoxGUw1t3pbiYwQkLPoTLXiN0HMq4KtXrvL9NBmUWMaMHpXq7jxSpJrRcG/MWlwin0OBAfYH4i4bGMi1vIDnXLZ0maYWlngsX7ZU6bhdOTwGAkJqwOTyhxpt1J/IaNSI+vXppzUi3E8oQIkZGAxlAQNjBdh4FCkwCIoICa7Ny+gkhvaTlwFaCQYNiNPcLRAouo4S90jSHEtIFaNdvXJVWReyjhvxlyYXmnSIK7amZI1mdUMvIOeC9dmVhRoBLUf553Wx86Vf3z5BSy5qtPh4NW4sIVWMRnkFah/Jm126dKlKTmiQAKPR9jZ39hz9PlKw0lAhkLBo2AEQEhpDWX0wRZQSNlwAHs+HEyTJEJH/+JVGxbdZ4ybaKxEpRgwfZkZLDCEG0QdCHhQo1rgBBqDcQ4uAfS0ItmwIzJcnjxnQr9+jYiRlGKi8f2V5hiTP1N/I5WIJUTfaiGHDVW9zMjS3YFD79enrKzo+0M4nklavgDWyc4UkGWJEcypKBnUsdsdYEHORn7R46TMaEwfDEtOcsTYWEFWjkQyzS4SY4VVrQxpCEd+2batKR8QVr4DOI0qzWlm5GAIFngllXSGP+VmSadyoZZkIAPwdcTnSVOVJIGpGYyYT9NHtnNt5IgWKOnkdrG7BvPn6YeEfc9yAFUSvSTBChDGRpliNluVS2eZkArxGOOb7NBAVozGYdBW1b9tOO3cRYlMCWGTTRk1M+zZt9VQAJgRM8H5S5ANInwjuNpCIy+vcsX2HukFbnX7w8IESFNrFqXTHIqJiNIRWTqmhaeVaiN0jboGbQrhlP9ccYY8kwGx99TLrEYgXLVioaYg/Lkn+BjucKQm3BewVdYT80L85J1YQFaMxyJAPWge8uLBAIJ4RH2kWRZkgUfby3OvWrNUUJFDvJKuXFOCR4iHPjxE5qcDGt1hEio3G7GdnCrHs7JnH+wxTAgqVaIewSUohFBi9PDcGGTJwkL5G598jZJO4swHDgj5JWgJQ+WMxllmk2GhUZgn2DEw0AfukO4utRbgvr4VF4iF9HvRBOqk7RuwjPz8geaUF1Qi0ySdRE0sJUmw03nSzxk2VNruBne18ZjbTU0gB8tbNm/rZkhioOG4xf568j5X7vWCo0HnKMpbVEsumTp6scdOuKIqeNPPQXk6jTywjRUa7du2qtpnRsxjMdWEU4gOuB1eFzkhfxvmz53SA0Bd5Dmg3LWd03SIt0W1M7lT4s4L6mJSAeMsKsgwRhYRc0PbmY7ilwnpRYxCvYx0pMhqqwsj4eM1xggG1H0JBp2+9OnW0mtywwfeqTdKDyIlt3Tp3Ud2RwbUbBjmaiBMBqlapokqJV8A62dA+ZNDgR82jdP/26t7j0XZbVBDOvWJrLys81pEiox08eEBzHOJDMJw8cUJjEk2a9FIgJXE0EaoDCS8skfI9qxD3hYsEkAH2RbPd1oskBmhVoLMq94cfmgZ162laQk9jw++/VyNaF83Ko6IdarN7LMGz0QjqDAIlfWfPhT8YFEgFZ0ThJpntfMZNYqQrl688ajFzulhi26oVK7SIGsz1hgL/l55HbQtPSNDnoaWuaKFC+ppt/zxlGSraxM20sMqAZ6OR4/Tq0UP3b4WDVR5QJ5CloPJswyUHQ/pC1P2+fn1tQ0MnpAeRsgx0nD1qkQLGCInJliWLrnAmDG7345wfqspv28Qx7CGJq+xiYaV7mRxPA56NhsrAkQ9u9lUxOKwuXCWDQ0mEDid7GgHGpEeRczpKFCumpZNPZIVwLAR7tyIBAw+JKVuylCo0eAQ6fFH2iaPETeIwrpOVRcwjnvIa0wo8GY0Azu7FScL4ooHTp07rSviy3Bd6Is5br79u3paPDM+/YCpVqCix86DrqgFG4qaqL8qU1eIleWS1Kl/raQRMEGQqmktHDBumWib9KwjUaQmejMZeLJo1WSnRAOyNEgi7LZs2bqIMk0FlH3IxYZAcBBYqblqwyiAwME5bh8PFfvtNDSVB1NfQItndyUExdBeTv7HFNi0hYqPxxulwosc92kCJ2L9vv7bOcboALrWfkAbO5mBnaLiYw9/TjMqJb7g+ekOaCgNdMH++KiocZdRW3C2FTUgUNJ/NfV4bYp8WIjYaTIzDUCLZI5wSUPLhsEz6PcIZje2z7dq0NYsTFutjofHkYzeu31AiRH0MggPo0EJn5DAXmGxaQkRGI4+h2ROG5+ylSE2gYnA6wJxZs5UVBgMra6PkfN26dtF2bdIIKs8k95Aemnn880neDx1ZqCVetc2ngYiMRhCHprvVGd2CVWFXEZ8xDiSBrxlMNlBALujPDwaMBtGwPY0k7rQWQPdhi5x0yorzB5onh54hoaUFCQtEZLTxQhTIqxBcIwUGwBB3bt/RAeUDg/D518REdVd8Txw7duyoEpNdO3dpqwB5HD0bXpJfjEGDaqgWCP4vJAgPghFjHa6NxizmhDYbEyIBrhRaT0scrohmHRp4UCLYgUmSjmKBC4PkQBAgECWKfq4nvL312utKGCIymizcvRJ3R44YoXExGOwKp1eEFnB0yVjrvvKHa6NRa6J0YTffRQIORMFgVLZxrexhtmo/K4wDmNm71rdXb41DbATUU2z69FWhmQPDkKBQ/+0ghwMuFlLCOVhuWyBgm5CT7du2h3TFTxuujUYpg1Vh++IjAQOIxmfrZYniqiAF5FT0YnTu1EkZKV8zaA3q1tWjz2kgJUaR/JKvcd6vG+UCw7K63ns3i3ZVcdqAW+BJxo0Zp1X4WIUroxGg2WxHM6ctUnoBi4RzfdlRiQHYOYkOyRmOKP2oHuxHo67F0ef9ZGWz3RZXirtkK60tr4QCsZNVi6LycsZMelwgqzkU+7Tg/VHb0/NDYlT1d2U0CpPs80pp4yarlIIpkpUq/pevaLLuDP58TX8ItTpyM4gIrQL8HWfjY4BweRWlFs7S//c//qmvm0lBOYjmIDdxkUSe+Kq5oe9nsQRXRpsvsYh45myldgtWD1VrXBQuEGmKbbBuAbMj1lB/g+HRj0gtDMYZCOzy5Bzjv//P/+pxtRiAvdU7fVUGeiCdKyhYjKRazuOdPSSxAldGo62MO8Lcdg4zEAwqeR1XeuDeOMKBajRuzr8J9IE8/vbtW3o2B6s5WGMNLNSewoMb9Xd3xEyOu8j8UgZTvEhRVUEseCweg7iMhBVuR88deS4ex2uHOccSXBmN0gWzLpRoy4mjrAYIBqcFEKug8WiBtCPwc/RK1PeWzVtoPQ4Vnko2KQCXGXAgNPe68LhQ51HR/YX7sluYAEbBDX6U80Nlm7jVQIDckLshHNPGEErZwZ3DeElT3B619CQQ1miwNVwaZ3D4B2YGitIH22w5xIttQRyGomUbMTJlD6fKwAkBxBhuPqJ63LFdOz3vl/oZBUouiaOMwlESejqburY/xiBiVs/uPXTVWWzasNFUKFden4daXyigktBujveADIUiHLh2BIX58+YHTR3wLKxGvASvze7xTi2ENRrnOLHrH1eBeuEEBlmSkKAujwo27BKWdv5cYKJAnzwskX1fXPtBZTnnB9n1ABUYG+dS8T/YsN6mVWs9iHnt6jVKWJysNel+krjBeF3N169f0xWOqJwrRw4Z3N8vJQiV0zHhOC+LEhCriRN2/N2tBUalUsDBn4kXEx97Xr5m9TIB6Gmh7AM7vnnjZqoVVsMaDYpNPOJeFf9CJEbbvXOXEot7YVgZA8KsZQVxIEupEsW18s22qLt3/1jgJH6ycqtXraZ3c5I/4a7sa9DzjYWFwixpScAl4ootQhnMCWIvNTWUmOPHjgd1l4QGanOMBYSM+IkXIOGn1Y+LWrmNkI9ePXvqRDhyyNumkXAIazQGin3HnAHiRfsDXBu8XoyDwsGVH7C/UB1cFsxUVHruMEMZ4cKDeXPn6YDRm0/BlDtfSpcsqTHKKzAwMZBUZNmSZcpYAwGBAI/DrhqEc1Qejo3i/C0OQOM18DwYbHT8KJ0IzpMUooWQRuMf0bVEqR6jBXMfwUCj6pYtm9Vd0LrGc2F4ntfNm7CP4RIFGnW4VoSY1b1LF61MQ1rI3byegOAE/wsVhYpAcr1w72Puzb4WXj/NQMRE2tYxHM1KbPRHgiOe8z3G42QHZDtWIy6U1eq2bSIUwhqNGyYgD0hOkRiNvde4QjZPMADMUjeG8gdvFGGZPJEEGXdKMZP2OC4u4EYLPAGDx2tkBaMdcqMFHcywPrcegteHe4TtYgTuAwh0iyDjQIzlg+fGEKxO5Dmalzj6AleKIMAGEtwlBdkJ4yfoxn+qCeSLqEORLgQQ1mhHDh9Rl8aMcfMPkg+PnqqJMANJo6mXgMwAsKuFN8sqPXTgoKrvDBIDRJ5FjwdkhIsOcJMff5jL5Mqew3yUI6deFo4cRrt3pHIU1yLHy8Rg1XCwJwPtNldjzMgzibm4UViuus+uXTW/ZO8bDb5oq+PGjNWJuFwM6H/0UyiENRolfPoqWDnBVgoDSc7DAJIakC8RrIOdzxEMTAoYJMYiZeAQNAzDagtmeKj+F6XLmL/+13/rHWd8zQ25uFFm8y8XfolYLyV/5FhbVjSpDBexkheSH3IJqxsQCnCzCArt27TTvhSaobgGBVd/WBgv+isEBoHcuU05HMIaDWNQ4mApBwIDTT7Fxr0V4sdpr4t0ZgOegwq1FiPnL9AYGsq1wVzZuMFdZ69mymw+yPqeEgnkp1o1augNTOSM3KEGgk24QOB/YjienwIqbQy4WiYj+w8WyOuzzxsKVArs6XsYfGBcnBqP/JLVuGHdepXaypYurV7JLcIajc4oWtq4pMAJfocvZxWckUCLRheMdYUCBuYKfZgXxkL6IhcKBTbT03zKanr2b8/oZzqJccX8PWIAK4WWcPKnUKpHKDBpYIsURyEWxEtyTGg9OSRnb3HGCCuZ8Xjw4KF+jRhOHOf3yGAYjRhprzBh/wIrGPdL6KHb2k31wsLVSkOhgDFZ8HNcH/8IlQB25wX8PafMMRt5I0yAUGBAUFm4toqyyyuZMuml4dBu0gAGGfY3eeJkPcr9zdde1959/gev2S1YaUxCXh9CMzGJjSAQC04+YIJw5xmpCOcio5YQw3DHuDko/2whT+yBI6biBmGaGIzJRGG2WdOmpka1aqZvr146xpEgrNGYXfRoOI8a4ucMklOiigT8PQYaJjONM4XdtLBxdwyzvUb16ibn+x9ozkaMgKlhTHpPlgr1Z6DwCqQDJNxlS5XSq/zJ99wSIp4P48BUcYusNBpmf6jfQHMvG/OIR5AJWOY8mXhMPhJ1LgbatGmTrjbYJAn8pUuX9X3ivtFWyVVh5Xo1pW+VuZ1YYY2Gu4HxRLOhk8Fjdn0jM41ZGSp3wbURT7l0lXZuVj0b2Z1sjtdJ6QdXSC8KA0XOVL5sOVVduOCHbi7Oxgp3/QjAi3Ddo83/UGcoimIU2z+CfsltGqck/wK8J/6OUhDnfCGCo5RAPGCIyHGkT7dlcgHeFzEvErdoEdZoyEck1173iAUCz4tbZfajbARaATyGGLlz+3bf7pqZQo2XPbbiLbhXE+2SigGgdQ5lHmGa2hoiLhIX7o1JGIzcWDBJaHvAZYcC5AKSAlOGNXN/KLt/cufKpSlItixZzT/+72+6N6GKpCBMohG+lZoShDUa9JsXh2gbLfC8wcDvmLHkYfTfk1izcoKBS/FINWyXGGyWv6Wv5PPChVW3ZILwvLglbtdl1dgZ7w8eR2KMEG5ZMEZmZTC52I/N17/d/U3ZKtLccEkN2LX6irBYmytmeOEF81rmzCbTiy+ZTC+9pLcdZnjueZNbft+lY2dNHRDQvSCs0XApLPVghcloAzcMi6RYCXMNZWAScNSFlStXPsoJMRrFVHZ+cvWVM2kljnIgJ3e8jBZXGoj4cO4INN/pfnds265MjziF6kJRmL10RQoWlJSjqsZaemjeffMtk++TPKac5IqvZMyk7X9Z335HL3t9X1YdLRCkJ1TV2bYcajKGQlij4SLI5qPpHgOB6jVujAHgCL9wMZTZTr4EdXYOPsYj9kAaUEQgTBbJVYax2vhKZYB4xz5rC8pGGAP36pwsMMF8efKarytV1ns/2UtH3Y9qBYPPxCD+Ffj0U5Pl7bd1jzcG5CYNViCuEqMVlp+/9867mlMiw6GfeimuhjUaJfqeQp/dthp4AW4HvY+4BFsDoVYYoPoAO/MvODLwnEkMe+S8R2e8pFaHa0TsRSlBnuLOar0ESHJDUgfyMptv3pGJwf/hcTwfqUbyBQ29lJyRbpCz8Rh2+1B550JzmG3lihVNyWLFTMnPi6vRWHVceP7GK6+qMd9+4w01OIpTpAhrNGa/nkAqg5EagIVRxKR4SvuA2/oTcQbW6dRDMQpulVUAY7Qu0wl+Zn8Oc+OmQFoUcGkwU+fMV9V/RLzmaVB9YiebQZC32PxPhWGk/JzXQXU778e5tRu6sLjNiuXLK/F4OWNGNdirEt/4TH75WuaX9XHEPlr9Ig09YY2GFtihffI2XecARQvscCGPcboxr0ApYZVxb/RicZv+qxWlAhdpaTv5GJ1m3FHNYFavUlXCwaZHNJwV16NrN11B7NpBuCa/ouJAdb1KpUrqygGTDhEY9/nZp/lM3ty59aZ5ykmFChTQxtns2bJpS8Wbr76mbRYFJI/kufeKR4gEIY0GcBtoZlyDz5uMNpSRRWEy4Ano20cIwN3Ru+JvNHI4PAfuDLBCaCN47p/PmuJFP9cdpBjB2cuPmkJjE3dsw0RxjcRdkmgUEdtcRIxlAz77EIoWLGTeeeNNZZJlSpTUBJ9EH4PR3k7Mg7DgJikvrV4V2f6IsEbD5aA8kMkHcjexAgab/gwIBisqEHgvGMy+D9wSuh+xhg0eTRo1UvnKOYlww0hU9pAaThxHJeLxEAlnzrdhw3ptpsVtQjoqVahgCuYrYAp/9pl2oWGgYkWK6NccBMD/rV2zlsbDSBDWaLwoZhmK9/VrqbPxjtUWjniEAisDXY9GVuKOW7DyaAjCdXEJOacfQFL85TmUDDaFYOCjR4/oyiNHg7ViZAqu69et1yYhEnri2Zflyule7y+/+EINhMH4wG1yakPRQoV1nwEr17my3SCs0QCKBPWkaDNI3C1iM0msk+VFChJrSMRQiTeRHCt/UAgQMz+bUHD0RdwUqol/wRMj0jrQo3s3VYc4Ge+Mb4MGbJQ9Bo1+aKiuubYwTFVEJCfDWJReuNic1faBL0+jA61g/vx6WBvCdqTVEVdGWyw5CG8m0IXfXsEK1nNEZJBD1c3CgXyO6jAqfKRt63SY5RA6DnuEcF369ZLOfOK3/yRiCzAusrok085+SwYcsZirMmk1hISggBDTMBCMkrErIivrpeeeV+aY56OPVRnBsKQOkeZqrozGjkx6HSItIQQCbpAVRkJKmYWVQWLtFeiNuKVIiojAulQGrnSJEuoCQfIunenCaB/f0kVxlzOVUUP8cV8mXGLiRTUObQ4c3EZxllvoydk6tGuvuRoqCUf8QkJgkPwOtxopXBmNU0jR7HBDXlcEgK3hYpFvSIxTSvNhblQJNnm4rov/X1HcFmSAgirsD8Au6bf03zyJR2AlNWrYUAUAOw7OWMyqw9hMIFoIUEyYEB/lzJlM84uX0KMQaYfge0QLL1V+V0YD1KSguqHKKKHAm6R/nxhw/Lg3zc0f6ID0U0bSFGOB0gPL4341/74PrjRGXHbuFeBoqORbDEdpasHxTMFSIF4PVYUG9eqr0VjNJNKsQpLqzBky6BldTBAvcG20Af37a0OK262wTvAmCOTrJG0IJNJ6BWL2xg0bPdWk+NviRYuqNuh/PylFSQRi8j22HgPizvgxYzXZxsgczYER2TeAQf1zTfbZseLYbIIOChHBPT7792dMuTJltD/EK1wbjZsGqTIH6gMMBt4Imy6oYaG8R8qSgoHnpbHm7OkzmpNFmi7glkfJiiHOMPCBQKzFTWIcazgqz6w0JCsYJfGUiUxLHEI0ZSIniJs0qTJuiMSo+yggqC4pESpcG43YQW+EW4bGWf1IRrwx5KWUxEJ/EH9oUfOywgC7W76uXFnzJGp2wbBgwQLtnnKeAWYPX6O1D+MzETEwyordzIHxSGWYTKxCkuk3JIbRWMsKT+lYuDYaXbs0obqpASUJXYaN8WaQk7w2/gSDrjSZxeye8QIacL4W5kbfB+0BwUBZipXmPOzmwf0HWoahgcc5+BiPKjb9mnQ8s9+uT+/eKi6Tw2FoYrq/G/UC10ZDiaeKbE8kDQbYEDGC+lssyl73ZdAoA6GAIAInV6HvBnRXdKCh8tPvaAH75fvZM2b+gZSx+4fKALuIyN1ot1srcQ0mavXOaMC10cjR8PGhDjIjV0EDZMtQamzxiQZImnGPuD0q8rhw4m2g9IPJR3MO8haVCDwHzBJRmC3IoVQcJgITIhoryx/ujbZ/v3YaB2t24c1TrmBA0ChToiUGAy6ROJYSyQvgEmk7YIMI1J80JNBKY0MlmivJMeUYPlihtCNwzlZqvEc3cG009LhuXbsGzOBti5nS2FR8H6QLEIGUMC+AJAVpoJaG26eRJxhIV+jsQtukuNq3T19z2+f2Y95oxCd6LvxPJmAgKdtgTOsKUuvN8PwE/5Q+PykIRtsuqwzCRPU6HHifkIxgKcKThHuj3b6jzaC4EwvcB3LQ1q2xec9YIEAUaHalH4SYQ5zCiOHAY9esWq09JdHKN73CtdEI1D9JHCBmWfBGYEXRzMFSE7Q2oHJ06dxZzyEBSGG2ZzIUSGO2Ss5Jv8gVD6pQNOHaaOlIxtOKY06kGy0NIt1oaRDpRkuDSDdaGkS60dIg0o2WBpFutDSIdKOlQaQbLQ0i3WhpDsb8P+gnC2X5c07cAAAAAElFTkSuQmCC;rounded=0;fontSize=12;strokeColor=default;fillColor=none;" parent="sV6QlmFNlfTiQHICOQkB-132" vertex="1">
          <mxGeometry x="160" y="79" width="91.83" height="107" as="geometry" />
        </mxCell>
        <object label="Hint message" tricc_type="hint-message" id="sV6QlmFNlfTiQHICOQkB-135">
          <mxCell style="rounded=0;whiteSpace=wrap;html=1;fillColor=#f5f5f5;fontColor=#333333;strokeColor=#666666;align=left;fontSize=12;" parent="sV6QlmFNlfTiQHICOQkB-132" vertex="1">
            <mxGeometry x="15" y="70" width="120" height="39" as="geometry" />
          </mxCell>
        </object>
        <object label="Help message" tricc_type="help-message" id="sV6QlmFNlfTiQHICOQkB-136">
          <mxCell style="rounded=0;whiteSpace=wrap;html=1;fillColor=#d5e8d4;strokeColor=#82b366;align=left;fontSize=12;" parent="sV6QlmFNlfTiQHICOQkB-132" vertex="1">
            <mxGeometry x="15" y="147" width="120" height="39" as="geometry" />
          </mxCell>
        </object>
        <mxCell id="sV6QlmFNlfTiQHICOQkB-137" style="edgeStyle=orthogonalEdgeStyle;rounded=0;jumpStyle=gap;jumpSize=10;orthogonalLoop=1;jettySize=auto;html=1;fontSize=12;strokeColor=#000000;fillColor=#F8CECC;" parent="WIyWlLk6GJQsqaUBKTNV-1" source="sV6QlmFNlfTiQHICOQkB-133" edge="1">
          <mxGeometry relative="1" as="geometry">
            <mxPoint x="1640" y="32" as="targetPoint" />
          </mxGeometry>
        </mxCell>
        <object label="Headline of page" tricc_type="container_page" name="g_" id="sV6QlmFNlfTiQHICOQkB-138">
          <mxCell style="swimlane;startSize=0;verticalAlign=bottom;strokeColor=#F19C99;fillColor=#F8CECC;" parent="WIyWlLk6GJQsqaUBKTNV-1" vertex="1">
            <mxGeometry x="850.0000000000009" y="110" width="340" height="140" as="geometry" />
          </mxCell>
        </object>
        <UserObject label="Referral message" name="shortcut_" tricc_type="goto" id="sV6QlmFNlfTiQHICOQkB-139">
          <mxCell style="shape=offPageConnector;whiteSpace=wrap;html=1;rounded=0;fontSize=12;strokeColor=default;fillColor=none;" parent="WIyWlLk6GJQsqaUBKTNV-1" vertex="1">
            <mxGeometry x="866.9999999999998" y="277" width="80" height="80" as="geometry" />
          </mxCell>
        </UserObject>
      </root>
    </mxGraphModel>
  </diagram>
</mxfile>
